# xmcd
#
# Track frame offsets:
#	150
#	11803
#	22635
#	33441
#	45656
#	58815
#	68569
#	81282
#	93713
#	108169
#	120527
#	135649
#	147216
#	159709
#	173354
#	185606
#
# Disc length: 2670 seconds
#
# Revision: 1
# Processed by: cddbd v1.5.1PL0 Copyright (c) Steve Scherf et al.
# Submitted via: EasyCDDAExtractor 8.0.1.1
#
DISCID=cd0a6c10
DTITLE=Otis Redding - The Very Best of Otis Redding, Vol. 1
DYEAR=1993
DGENRE=Blues
TTITLE0=These Arms Of Mine
TTITLE1=Pain In My Heart
TTITLE2=That's How Strong My Love Is
TTITLE3=Mr. Pitiful
TTITLE4=I've Been Loving You Too Long (To Stop Now)
TTITLE5=Respect
TTITLE6=I Can't Turn You Loose
TTITLE7=(I Can't Get No) Satisfaction
TTITLE8=My Lover's Prayer
TTITLE9=Fa-Fa-Fa-Fa-Fa-Fa (Sad Song)
TTITLE10=Try A Little Tenderness
TTITLE11=Shake
TTITLE12=The Happy Song (Dum-Dum)
TTITLE13=Tramp
TTITLE14=(Sittin' On) The Dock Of The Bay
TTITLE15=I've Got Dreams To Remember
EXTD=hott
EXTT0=
EXTT1=
EXTT2=
EXTT3=
EXTT4=
EXTT5=
EXTT6=
EXTT7=
EXTT8=
EXTT9=
EXTT10=
EXTT11=
EXTT12=
EXTT13=
EXTT14=
EXTT15=
PLAYORDER=
